<?xml version="1.0" encoding="UTF-8" standalone="no"?>
<!DOCTYPE svg PUBLIC "-//W3C//DTD SVG 1.1//EN"
 "http://www.w3.org/Graphics/SVG/1.1/DTD/svg11.dtd">
<!-- Generated by graphviz version 2.36.0 (20140111.2315)
 -->
<!-- Title: G Pages: 1 -->
<svg width="445pt" height="246pt"
 viewBox="0.00 0.00 445.00 246.00" xmlns="http://www.w3.org/2000/svg" xmlns:xlink="http://www.w3.org/1999/xlink">
<g id="graph0" class="graph" transform="scale(1 1) rotate(0) translate(4 242)">
<title>G</title>
<polygon fill="white" stroke="none" points="-4,4 -4,-242 441,-242 441,4 -4,4"/>
<g id="clust1" class="cluster"><title>cluster_master</title>
<polygon fill="none" stroke="black" points="189,-80 189,-230 331,-230 331,-80 189,-80"/>
<text text-anchor="middle" x="260" y="-214.8" font-family="Times,serif" font-size="14.00">10.211.55.11</text>
</g>
<g id="clust2" class="cluster"><title>cluster_slave1</title>
<polygon fill="none" stroke="black" points="8,-8 8,-155 181,-155 181,-8 8,-8"/>
<text text-anchor="middle" x="94.5" y="-139.8" font-family="Times,serif" font-size="14.00">10.211.55.12</text>
</g>
<g id="clust3" class="cluster"><title>cluster_slave2</title>
<polygon fill="none" stroke="black" points="339,-8 339,-155 429,-155 429,-8 339,-8"/>
<text text-anchor="middle" x="384" y="-139.8" font-family="Times,serif" font-size="14.00">10.211.55.13</text>
</g>
<!-- ha -->
<g id="node1" class="node"><title>ha</title>
<polygon fill="none" stroke="black" points="239,-118 197,-118 197,-94 239,-94 251,-106 239,-118"/>
<text text-anchor="middle" x="224" y="-102.3" font-family="Times,serif" font-size="14.00">ha</text>
</g>
<!-- confd -->
<g id="node2" class="node"><title>confd</title>
<polygon fill="none" stroke="black" points="287,-199 233,-199 233,-195 229,-195 229,-191 233,-191 233,-171 229,-171 229,-167 233,-167 233,-163 287,-163 287,-199"/>
<polyline fill="none" stroke="black" points="233,-195 237,-195 237,-191 233,-191 "/>
<polyline fill="none" stroke="black" points="233,-171 237,-171 237,-167 233,-167 "/>
<text text-anchor="middle" x="260" y="-177.3" font-family="Times,serif" font-size="14.00">confd</text>
</g>
<!-- confd&#45;&gt;ha -->
<g id="edge2" class="edge"><title>confd&#45;&gt;ha</title>
<path fill="none" stroke="black" d="M251.469,-162.7C247.12,-153.882 241.74,-142.973 236.897,-133.153"/>
<polygon fill="black" stroke="black" points="240.032,-131.596 232.47,-124.176 233.754,-134.693 240.032,-131.596"/>
</g>
<!-- etcd_master -->
<g id="node3" class="node"><title>etcd_master</title>
<polygon fill="none" stroke="black" points="323,-124 320,-128 299,-128 296,-124 269,-124 269,-88 323,-88 323,-124"/>
<text text-anchor="middle" x="296" y="-102.3" font-family="Times,serif" font-size="14.00">etcd</text>
</g>
<!-- confd&#45;&gt;etcd_master -->
<g id="edge1" class="edge"><title>confd&#45;&gt;etcd_master</title>
<path fill="none" stroke="black" d="M268.531,-162.7C272.88,-153.882 278.26,-142.973 283.103,-133.153"/>
<polygon fill="black" stroke="black" points="286.246,-134.693 287.53,-124.176 279.968,-131.596 286.246,-134.693"/>
</g>
<!-- etcd_slave1 -->
<g id="node4" class="node"><title>etcd_slave1</title>
<polygon fill="none" stroke="black" points="165,-52 162,-56 141,-56 138,-52 111,-52 111,-16 165,-16 165,-52"/>
<text text-anchor="middle" x="138" y="-30.3" font-family="Times,serif" font-size="14.00">etcd</text>
</g>
<!-- etcd_master&#45;&gt;etcd_slave1 -->
<g id="edge10" class="edge"><title>etcd_master&#45;&gt;etcd_slave1</title>
<path fill="none" stroke="black" d="M282.151,-87.9619C278.004,-85.1053 273.454,-82.3199 269,-80 238.995,-64.3724 202.314,-51.621 175.248,-43.7334"/>
<polygon fill="black" stroke="black" points="175.955,-40.2962 165.38,-40.9528 174.056,-47.0338 175.955,-40.2962"/>
</g>
<!-- etcd_slave2 -->
<g id="node7" class="node"><title>etcd_slave2</title>
<polygon fill="none" stroke="black" points="405,-52 402,-56 381,-56 378,-52 351,-52 351,-16 405,-16 405,-52"/>
<text text-anchor="middle" x="378" y="-30.3" font-family="Times,serif" font-size="14.00">etcd</text>
</g>
<!-- etcd_master&#45;&gt;etcd_slave2 -->
<g id="edge11" class="edge"><title>etcd_master&#45;&gt;etcd_slave2</title>
<path fill="none" stroke="black" d="M322.185,-87.6966C333.206,-79.0503 345.802,-68.4486 356.3,-59.027"/>
<polygon fill="black" stroke="black" points="358.848,-61.4396 363.859,-52.1043 354.12,-56.2775 358.848,-61.4396"/>
</g>
<!-- etcd_slave1&#45;&gt;etcd_master -->
<g id="edge6" class="edge"><title>etcd_slave1&#45;&gt;etcd_master</title>
<path fill="none" stroke="black" d="M165.152,-45.1823C188.626,-53.1381 222.768,-65.2959 251,-80 254.062,-81.5949 257.17,-83.4099 260.261,-85.3167"/>
<polygon fill="black" stroke="black" points="258.566,-88.3872 268.876,-90.8277 262.338,-82.4906 258.566,-88.3872"/>
</g>
<!-- etcd_slave1&#45;&gt;etcd_slave2 -->
<g id="edge7" class="edge"><title>etcd_slave1&#45;&gt;etcd_slave2</title>
<path fill="none" stroke="black" d="M165.188,-34C223.732,-34 282.277,-34 340.822,-34"/>
<polygon fill="black" stroke="black" points="340.983,-37.5001 350.983,-34 340.983,-30.5001 340.983,-37.5001"/>
</g>
<!-- container11 -->
<g id="node5" class="node"><title>container11</title>
<polygon fill="none" stroke="black" points="172.25,-124 107.75,-124 103.75,-120 103.75,-88 168.25,-88 172.25,-92 172.25,-124"/>
<polyline fill="none" stroke="black" points="168.25,-120 103.75,-120 "/>
<polyline fill="none" stroke="black" points="168.25,-120 168.25,-88 "/>
<polyline fill="none" stroke="black" points="168.25,-120 172.25,-124 "/>
<text text-anchor="middle" x="138" y="-102.3" font-family="Times,serif" font-size="14.00">container</text>
</g>
<!-- container11&#45;&gt;etcd_slave1 -->
<g id="edge3" class="edge"><title>container11&#45;&gt;etcd_slave1</title>
<path fill="none" stroke="black" d="M138,-87.6966C138,-79.9827 138,-70.7125 138,-62.1124"/>
<polygon fill="black" stroke="black" points="141.5,-62.1043 138,-52.1043 134.5,-62.1044 141.5,-62.1043"/>
</g>
<!-- container12 -->
<g id="node6" class="node"><title>container12</title>
<polygon fill="none" stroke="black" points="85.25,-124 20.75,-124 16.75,-120 16.75,-88 81.25,-88 85.25,-92 85.25,-124"/>
<polyline fill="none" stroke="black" points="81.25,-120 16.75,-120 "/>
<polyline fill="none" stroke="black" points="81.25,-120 81.25,-88 "/>
<polyline fill="none" stroke="black" points="81.25,-120 85.25,-124 "/>
<text text-anchor="middle" x="51" y="-102.3" font-family="Times,serif" font-size="14.00">container</text>
</g>
<!-- container12&#45;&gt;etcd_slave1 -->
<g id="edge4" class="edge"><title>container12&#45;&gt;etcd_slave1</title>
<path fill="none" stroke="black" d="M72.5056,-87.6966C83.4625,-78.8807 96.9459,-68.0321 108.825,-58.4742"/>
<polygon fill="black" stroke="black" points="111.145,-61.1001 116.742,-52.1043 106.756,-55.6462 111.145,-61.1001"/>
</g>
<!-- etcd_slave2&#45;&gt;etcd_master -->
<g id="edge8" class="edge"><title>etcd_slave2&#45;&gt;etcd_master</title>
<path fill="none" stroke="black" d="M352.068,-52.1043C341.072,-60.7205 328.473,-71.316 317.942,-80.7555"/>
<polygon fill="black" stroke="black" points="315.37,-78.3647 310.354,-87.6966 320.095,-83.5298 315.37,-78.3647"/>
</g>
<!-- etcd_slave2&#45;&gt;etcd_slave1 -->
<g id="edge9" class="edge"><title>etcd_slave2&#45;&gt;etcd_slave1</title>
<path fill="none" stroke="black" d="M350.983,-34C292.438,-34 233.893,-34 175.348,-34"/>
<polygon fill="black" stroke="black" points="175.188,-30.5001 165.188,-34 175.187,-37.5001 175.188,-30.5001"/>
</g>
<!-- container21 -->
<g id="node8" class="node"><title>container21</title>
<polygon fill="none" stroke="black" points="416.25,-124 351.75,-124 347.75,-120 347.75,-88 412.25,-88 416.25,-92 416.25,-124"/>
<polyline fill="none" stroke="black" points="412.25,-120 347.75,-120 "/>
<polyline fill="none" stroke="black" points="412.25,-120 412.25,-88 "/>
<polyline fill="none" stroke="black" points="412.25,-120 416.25,-124 "/>
<text text-anchor="middle" x="382" y="-102.3" font-family="Times,serif" font-size="14.00">container</text>
</g>
<!-- container21&#45;&gt;etcd_slave2 -->
<g id="edge5" class="edge"><title>container21&#45;&gt;etcd_slave2</title>
<path fill="none" stroke="black" d="M381.011,-87.6966C380.57,-79.9827 380.041,-70.7125 379.549,-62.1124"/>
<polygon fill="black" stroke="black" points="383.042,-61.8883 378.977,-52.1043 376.054,-62.2878 383.042,-61.8883"/>
</g>
</g>
</svg>
